<svg width="100" height="100" viewBox="0 0 100 100" fill="none" xmlns="http://www.w3.org/2000/svg">
<path fill-rule="evenodd" clip-rule="evenodd" d="M1.01276 47.9594C0.452168 47.9821 0 48.439 0 49V49C0 49.561 0.452235 50.0179 1.01283 50.0406C27.1414 51.0963 48 72.6123 48 99V99C48 99.5491 48.4509 100 49 100V100C49.5491 100 50 99.5491 50 99V99C50 71.938 71.938 50 99 50V50C99.5491 50 100 49.5491 100 49V49C100 48.4509 99.5491 48 99 48V48C72.6123 48 51.0963 27.1414 50.0406 1.01283C50.0179 0.452235 49.561 0 49 0V0C48.439 0 47.9821 0.452166 47.9594 1.01276C46.9307 26.4738 26.4738 46.9307 1.01276 47.9594Z" fill="white"/>
</svg>
